#!OML:ASF F:\VICON\USERDATA\INSTALL\Justin_Nancy\Justin_Nancy.ASF
:FULLY-SPECIFIED
:DEGREES
158
root 17.4374 16.4053 12.7676 -39.6824 80.4037 -44.2935
lowerback 17.3461 -2.16744 -0.55699
upperback 2.03429 -2.49948 3.86956
thorax -7.33049 -1.07795 5.05902
lowerneck -15.2291 -4.06192 -5.20364
upperneck 13.756 -5.8558 9.0886
head 7.15161 -2.26398 3.1892
rclavicle 1.63252e-014 1.46604e-014
rhumerus -55.1347 9.95555 -82.3711
rradius 87.0756
rwrist -12.9705
rhand -9.98093 29.7949
rfingers 7.12502
rthumb 16.002 0.435792
lclavicle 1.63252e-014 1.46604e-014
lhumerus -37.7833 -13.7522 89.7727
lradius 111.078
lwrist 28.0359
lhand -18.4514 6.89078
lfingers 7.12502
lthumb 7.83469 36.7256
rfemur -18.2529 3.3549 11.1412
rtibia 77.2251
rfoot 0.652401 -3.12021
rtoes -12.5618
lfemur -30.2554 10.1373 -32.5029
ltibia 50.9793
lfoot -19.39 9.66743
ltoes 11.6096
159
root 17.789 16.3202 12.7384 -45.8036 79.0906 -51.6857
lowerback 16.4733 -2.2263 1.63092
upperback 1.74537 -2.10146 4.73377
thorax -7.24971 -0.927294 4.62228
lowerneck -15.6457 -4.3226 -6.08836
upperneck 13.7423 -6.00321 9.09438
head 7.25647 -2.3745 3.31478
rclavicle -1.77415e-014 -1.54058e-014
rhumerus -56.1148 9.07921 -80.8782
rradius 86.2177
rwrist -10.9491
rhand -12.8959 28.884
rfingers 7.12502
rthumb 13.1936 -0.678476
lclavicle -1.77415e-014 -1.54058e-014
lhumerus -34.8352 -12.7539 89.7362
lradius 111.923
lwrist 28.5992
lhand -18.3152 7.67281
lfingers 7.12502
lthumb 7.9661 37.5027
rfemur -23.1716 2.72082 13.0419
rtibia 79.7692
rfoot -0.547188 -3.62832
rtoes -13.4279
lfemur -30.4103 9.38322 -30.6989
ltibia 51.3472
lfoot -20.858 10.6455
ltoes 11.6415
160
root 18.1439 16.2179 12.7031 -40.8737 81.6769 -47.4343
lowerback 16.0584 -2.80481 1.28595
upperback 1.28721 -3.08134 3.45514
thorax -7.50115 -1.42814 3.65057
lowerneck -15.9982 -4.28953 -6.0002
upperneck 13.9133 -6.0634 9.6135
head 7.39485 -2.33636 3.46347
rclavicle -1.56046e-014 -2.08724e-015
rhumerus -57.5412 7.71592 -80.9483
rradius 85.9006
rwrist -10.3246
rhand -13.8556 28.3697
rfingers 7.12502
rthumb 12.2683 -1.2504
lclavicle -1.56046e-014 -2.08724e-015
lhumerus -32.3121 -11.1991 88.6269
lradius 112.72
lwrist 28.129
lhand -17.3155 8.37916
lfingers 7.12502
lthumb 8.93091 38.1701
rfemur -27.2986 0.130346 10.0081
rtibia 82.1177
rfoot -2.4194 -3.10859
rtoes -13.5177
lfemur -29.3548 7.5815 -33.4857
ltibia 51.1092
lfoot -22.4113 11.4034
ltoes 12.5426
161
root 18.5352 16.1584 12.7614 -32.3895 84.346 -38.4885
lowerback 16.2803 -2.94787 -1.18191
upperback 1.3128 -3.78866 2.75018
thorax -7.44476 -1.71328 4.45596
lowerneck -16.1214 -4.29298 -5.84334
upperneck 13.6187 -6.09559 9.71685
head 7.3226 -2.33614 3.46426
rclavicle 5.35725e-014 -1.21259e-014
rhumerus -58.9966 6.13613 -80.3928
rradius 86.1195
rwrist -12.0035
rhand -15.8033 27.7434
rfingers 7.12502
rthumb 10.3899 -1.97991
lclavicle 5.35725e-014 -1.21259e-014
lhumerus -30.3298 -10.1984 88.0606
lradius 113.987
lwrist 28.7485
lhand -15.081 9.75402
lfingers 7.12502
lthumb 11.0866 39.4412
rfemur -29.9048 -1.64134 7.59121
rtibia 83.7076
rfoot -4.19058 -3.3297
rtoes -12.0026
lfemur -26.8021 6.38413 -35.8535
ltibia 50.5291
lfoot -22.9785 12.014
ltoes 8.92297
162
root 18.9292 16.1529 12.8248 -21.637 84.9735 -28.0234
lowerback 15.8372 -2.70618 -2.66848
upperback 1.21979 -3.77397 2.43043
thorax -7.22556 -1.67672 4.92493
lowerneck -16.1388 -4.29043 -5.26863
upperneck 13.268 -6.14202 9.38337
head 7.18639 -2.36516 3.25041
rclavicle 7.55382e-014 -2.13694e-014
rhumerus -60.3573 4.56038 -79.7987
rradius 86.6184
rwrist -14.7795
rhand -20.4729 27.3277
rfingers 7.12502
rthumb 5.88322 -2.57061
lclavicle 7.55382e-014 -2.13694e-014
lhumerus -29.2067 -10.4999 86.9962
lradius 115.81
lwrist 30.5982
lhand -14.2596 11.1355
lfingers 7.12502
lthumb 11.8788 40.7785
rfemur -33.0818 -1.79371 6.90969
rtibia 84.2599
rfoot -5.83484 -3.84719
rtoes -10.4583
lfemur -24.8663 6.38644 -36.8533
ltibia 49.5758
lfoot -22.8981 12.735
ltoes 2.39661
163
root 19.3601 16.1771 12.9152 -8.22092 84.8987 -14.0728
lowerback 15.7667 -2.44837 -4.35367
upperback 1.45669 -3.76978 1.87031
thorax -6.86024 -1.64994 5.26105
lowerneck -16.2918 -4.07397 -4.36403
upperneck 13.1519 -5.98777 9.06496
head 7.12592 -2.27013 3.01253
rclavicle -4.47266e-016 2.98177e-015
rhumerus -61.6618 3.79426 -80.4051
rradius 86.8797
rwrist -13.8948
rhand -17.8344 28.3468
rfingers 7.12502
rthumb 8.43013 -1.4649
lclavicle -4.47266e-016 2.98177e-015
lhumerus -28.1546 -8.74391 86.3447
lradius 117.392
lwrist 32.2614
lhand -13.0597 11.7429
lfingers 7.12502
lthumb 13.0357 41.3156
rfemur -34.9816 -1.09178 6.47669
rtibia 83.9139
rfoot -7.37576 -4.28852
rtoes -10.1625
lfemur -21.8762 7.71004 -37.533
ltibia 48.4811
lfoot -24.1979 11.2325
ltoes 4.82217
164
root 19.7805 16.2318 13.0149 -10.2077 82.613 -15.7974
lowerback 15.5313 -1.66954 -5.0161
upperback 1.65622 -2.83014 2.0052
thorax -6.58551 -1.18665 5.57531
lowerneck -16.4009 -3.74634 -3.64345
upperneck 13.0726 -5.62547 8.62041
head 7.05854 -2.09852 2.78872
rclavicle -6.36111e-014 1.09332e-014
rhumerus -62.6889 3.26833 -80.5081
rradius 87.7193
rwrist -15.4933
rhand -16.3565 28.3755
rfingers 7.12502
rthumb 9.8562 -1.37381
lclavicle -6.36111e-014 1.09332e-014
lhumerus -27.3481 -7.21542 85.923
lradius 118.965
lwrist 34.0506
lhand -12.6235 12.1022
lfingers 7.12502
lthumb 13.4561 41.6475
rfemur -37.5007 2.0898 8.36959
rtibia 82.7199
rfoot -8.13815 -5.18793
rtoes -11.6624
lfemur -19.6431 10.2798 -36.1944
ltibia 47.632
lfoot -25.4435 9.37611
ltoes 11.098
165
root 20.1904 16.2433 13.0021 -9.20717 82.7017 -14.7471
lowerback 15.4947 -1.90839 -4.64878
upperback 1.54856 -3.09096 1.94806
thorax -6.67043 -1.32025 5.35753
lowerneck -15.9133 -3.44281 -3.17465
upperneck 12.6876 -5.1791 7.87157
head 6.78578 -1.9506 2.52039
rclavicle -3.98066e-014 -1.41137e-014
rhumerus -63.7586 2.91786 -80.2667
rradius 88.8717
rwrist -17.5152
rhand -15.8607 27.8149
rfingers 7.12502
rthumb 10.3345 -1.91119
lclavicle -3.98066e-014 -1.41137e-014
lhumerus -27.0002 -5.84236 86.0063
lradius 120.533
lwrist 35.7979
lhand -13.5175 11.949
lfingers 7.12502
lthumb 12.5943 41.5493
rfemur -39.6769 2.41758 8.63035
rtibia 81.1429
rfoot -9.02474 -5.46565
rtoes -10.028
lfemur -17.4825 10.1773 -36.1959
ltibia 46.7129
lfoot -25.3734 9.80227
ltoes 8.24363
166
root 20.616 16.2777 12.9768 -13.1921 82.3546 -18.8933
lowerback 15.202 -2.00425 -3.78152
upperback 1.40409 -3.0381 2.31528
thorax -6.69583 -1.31157 5.23722
lowerneck -15.569 -3.27055 -3.2449
upperneck 12.6411 -4.84594 7.32541
head 6.67731 -1.85272 2.39359
rclavicle -5.85918e-014 1.60022e-014
rhumerus -64.8887 2.63921 -79.7649
rradius 90.2511
rwrist -19.1758
rhand -15.277 27.3127
rfingers 7.12502
rthumb 10.8976 -2.38453
lclavicle -5.85918e-014 1.60022e-014
lhumerus -26.7578 -4.95354 86.4319
lradius 122.021
lwrist 37.6819
lhand -13.8436 11.8752
lfingers 7.12502
lthumb 12.28 41.4946
rfemur -41.6352 3.02745 9.7936
rtibia 78.7373
rfoot -9.72959 -6.11719
rtoes -9.91491
lfemur -15.5487 10.5168 -35.3677
ltibia 45.8826
lfoot -25.0598 9.70712
ltoes 1.76774
167
root 21.0225 16.2958 12.9813 -3.22701 83.0695 -8.54486
lowerback 15.4206 -1.89577 -5.6342
upperback 1.47624 -3.20692 2.41766
thorax -6.61004 -1.34556 6.4501
lowerneck -16.0936 -3.15852 -3.58931
upperneck 13.0885 -4.56742 6.90347
head 6.89042 -1.75644 2.3398
rclavicle -3.01283e-015 -1.01132e-014
rhumerus -65.4691 2.2994 -78.8465
rradius 91.5613
rwrist -20.9166
rhand -14.3576 27.2409
rfingers 7.12502
rthumb 11.7843 -2.40762
lclavicle -3.01283e-015 -1.01132e-014
lhumerus -26.1545 -4.45193 86.9831
lradius 123.19
lwrist 39.2376
lhand -13.6397 12.3309
lfingers 7.12502
lthumb 12.4765 41.9385
rfemur -43.1142 2.61346 8.91537
rtibia 76.1377
rfoot -10.0713 -6.40239
rtoes -10.3072
lfemur -13.1022 10.5452 -36.4481
ltibia 44.9215
lfoot -24.0294 8.41643
ltoes -1.03879
168
root 21.4503 16.3341 12.9695 1.55877 83.1167 -3.53799
lowerback 15.3664 -1.97565 -6.61862
upperback 1.52709 -3.44797 2.7786
thorax -6.40657 -1.44347 7.44884
lowerneck -16.3951 -2.80675 -3.97069
upperneck 13.3481 -3.91501 6.33398
head 6.98227 -1.50775 2.2871
rclavicle 3.95581e-014 -1.44119e-014
rhumerus -65.9125 2.73219 -78.1288
rradius 92.861
rwrist -22.0737
rhand -12.9197 27.2873
rfingers 7.12502
rthumb 13.1706 -2.27669
lclavicle 3.95581e-014 -1.44119e-014
lhumerus -25.9658 -3.21319 87.5931
lradius 124.109
lwrist 40.225
lhand -13.2799 12.507
lfingers 7.12502
lthumb 12.8234 42.0931
rfemur -44.2969 2.85899 8.91182
rtibia 72.8586
rfoot -10.3335 -6.72109
rtoes -11.3034
lfemur -10.8111 10.313 -36.7788
ltibia 43.9424
lfoot -22.477 7.69785
ltoes -1.48311
169
root 21.894 16.4023 12.96 0.651051 82.6836 -4.46678
lowerback 15.0507 -2.07586 -6.78411
upperback 1.46186 -3.557 3.27661
thorax -6.24017 -1.4949 8.09153
lowerneck -16.3515 -2.51387 -4.35957
upperneck 13.6186 -3.37038 5.92489
head 7.03009 -1.30357 2.27879
rclavicle 4.42296e-015 2.22639e-014
rhumerus -66.5583 3.36472 -77.7433
rradius 94.111
rwrist -22.39
rhand -11.9785 27.842
rfingers 7.12502
rthumb 14.0777 -1.66116
lclavicle 4.42296e-015 2.22639e-014
lhumerus -26.3007 -1.82394 88.2084
lradius 124.55
lwrist 40.0627
lhand -11.8898 12.4519
lfingers 7.12502
lthumb 14.1632 41.9492
rfemur -45.2903 4.04999 9.54079
rtibia 69.0569
rfoot -11.0435 -7.02347
rtoes -10.7824
lfemur -8.8594 10.5034 -36.2778
ltibia 42.957
lfoot -20.7469 6.51055
ltoes -3.69285
170
root 22.3458 16.4945 12.9799 1.73529 81.7735 -3.63549
lowerback 14.326 -1.77419 -7.47029
upperback 1.30268 -3.21845 3.55126
thorax -6.01885 -1.31981 8.69034
lowerneck -16.2611 -2.42049 -4.33742
upperneck 14.127 -3.21217 5.58615
head 7.16433 -1.25389 2.18497
rclavicle -4.57205e-015 5.1684e-015
rhumerus -67.3083 3.23043 -77.564
rradius 95.1783
rwrist -22.4724
rhand -11.7322 28.347
rfingers 7.12502
rthumb 14.315 -1.13952
lclavicle -4.57205e-015 5.1684e-015
lhumerus -27.1826 -1.50553 88.4464
lradius 124.683
lwrist 39.2569
lhand -9.74683 12.3154
lfingers 7.12502
lthumb 16.2274 41.6563
rfemur -46.3496 5.7013 9.99562
rtibia 64.8201
rfoot -11.497 -7.27506
rtoes -11.0315
lfemur -7.38656 11.5299 -35.7648
ltibia 42.2913
lfoot -18.8097 4.09168
ltoes -6.56518
171
root 22.7784 16.5569 12.8775 4.38801 82.7326 -0.717178
lowerback 14.9544 -2.23857 -6.1885
upperback 0.920168 -3.68074 3.39426
thorax -6.78025 -1.53023 7.92113
lowerneck -15.8364 -2.35098 -4.46395
upperneck 14.5301 -3.04038 5.16504
head 7.20787 -1.21995 2.0909
rclavicle 1.44119e-014 -1.39149e-014
rhumerus -68.2993 3.01515 -77.5253
rradius 96.2726
rwrist -22.2066
rhand -12.4324 28.1679
rfingers 7.12502
rthumb 13.6403 -1.36517
lclavicle 1.44119e-014 -1.39149e-014
lhumerus -28.3858 -2.05695 88.6068
lradius 124.363
lwrist 38.2528
lhand -8.91064 11.9478
lfingers 7.12502
lthumb 17.0325 41.2211
rfemur -46.4045 4.26506 10.0773
rtibia 60.1163
rfoot -11.3559 -6.15285
rtoes -11.5674
lfemur -5.49671 10.1121 -36.0524
ltibia 41.7664
lfoot -15.8082 2.32303
ltoes -10.0593
